# xmcd CD database file
#
# Track frame offsets:
#	150
#	18347
#	36975
#	69495
#
# Disc length: 1494 seconds
#
# Revision: 1
# Processed by: cddbd v1.5.2PL0 Copyright (c) Steve Scherf et al.
# Submitted via: CDex 1.51
#
DISCID=2d05d404
DTITLE=姫神 - 未来の瞳
DYEAR=2000
DGENRE=New Age
TTITLE0=未来の瞳
TTITLE1=小春日和
TTITLE2=未来の瞳(リ・アレンジ)
TTITLE3=未来の瞳(リ・コンストラクト)
EXTD=YEAR: 2000
EXTT0=
EXTT1=
EXTT2=
EXTT3=
PLAYORDER=
